Coordinates
version=1
nRows=13
nColumns=40
inDegrees=yes

Units are S.I. units (second, meters, Newtons, ...)
If the header above contains a line with 'inDegrees', this indicates whether rotational values are in degrees (yes) or radians (no).

endheader
time	pelvis_tilt	pelvis_list	pelvis_rotation	pelvis_tx	pelvis_ty	pelvis_tz	hip_flexion_r	hip_adduction_r	hip_rotation_r	knee_angle_r	knee_angle_r_beta	ankle_angle_r	subtalar_angle_r	mtp_angle_r	hip_flexion_l	hip_adduction_l	hip_rotation_l	knee_angle_l	knee_angle_l_beta	ankle_angle_l	subtalar_angle_l	mtp_angle_l	lumbar_extension	lumbar_bending	lumbar_rotation	arm_flex_r	arm_add_r	arm_rot_r	elbow_flex_r	pro_sup_r	wrist_flex_r	wrist_dev_r	arm_flex_l	arm_add_l	arm_rot_l	elbow_flex_l	pro_sup_l	wrist_flex_l	wrist_dev_l
     14.87500000	      0.57207325	      2.12420368	      5.09235703	     -0.81600666	      0.58146013	      0.31207665	     45.00000012	     -9.99999999	      0.00000000	     60.00014062	      1.04720001	     -4.99999985	      0.00000000	      0.00000000	     45.00000012	     -9.99999999	      0.00000000	     60.00014062	      1.04720001	     -4.99999985	      0.00000000	      0.00000000	     -8.62049718	     -9.18144540	      6.24122185	     89.97732953	    -29.40355674	     25.44090140	     57.13800185	     83.90497415	      0.00000000	      0.00000000	      6.61875197	    -32.59455315	     11.41302278	    111.21080539	     89.39765574	      0.00000000	      0.00000000
     14.88000000	      0.52823201	      2.11715298	      5.11286265	     -0.81580321	      0.58147917	      0.31211747	     45.00000012	     -9.99999999	      0.00000000	     60.00014062	      1.04720001	     -4.99999985	      0.00000000	      0.00000000	     45.00000012	     -9.99999999	      0.00000000	     60.00014062	      1.04720001	     -4.99999985	      0.00000000	      0.00000000	     -8.57267554	     -9.20978412	      6.32066557	     89.97743616	    -29.35336571	     25.43753580	     56.73814841	     83.92140873	      0.00000000	      0.00000000	      6.70859836	    -32.62700987	     11.58296390	    111.15255958	     89.40789738	      0.00000000	      0.00000000
     14.88500000	      0.48035823	      2.11471279	      5.16036832	     -0.81575816	      0.58147207	      0.31199991	     45.00000012	     -9.99999999	      0.00000000	     60.00014062	      1.04720001	     -4.99999985	      0.00000000	      0.00000000	     45.00000012	     -9.99999999	      0.00000000	     60.00014062	      1.04720001	     -4.99999985	      0.00000000	      0.00000000	     -8.55424943	     -9.23187985	      6.39750796	     89.97746161	    -29.38015090	     25.40633154	     56.45752568	     83.92633056	      0.00000000	      0.00000000	      6.80541261	    -32.58716968	     11.67304879	    111.19721362	     89.38835414	      0.00000000	      0.00000000
     14.89000000	      0.43825527	      2.11140046	      5.19698532	     -0.81562090	      0.58143504	      0.31166295	     45.00000012	     -9.99999999	      0.00000000	     60.00014062	      1.04720001	     -4.99999985	      0.00000000	      0.00000000	     45.00000012	     -9.99999999	      0.00000000	     60.00014062	      1.04720001	     -4.99999985	      0.00000000	      0.00000000	     -8.52923706	     -9.23651293	      6.47942245	     89.97749528	    -29.41860872	     25.39634513	     56.19458301	     83.92969642	      0.00000000	      0.00000000	      6.90072174	    -32.49332547	     11.79784040	    111.22186537	     89.35477963	      0.00000000	      0.00000000
     14.89500000	      0.38684598	      2.09123685	      5.20531246	     -0.81554892	      0.58138387	      0.31164460	     45.00000012	     -9.99999999	      0.00000000	     60.00014062	      1.04720001	     -4.99999985	      0.00000000	      0.00000000	     45.00000012	     -9.99999999	      0.00000000	     60.00014062	      1.04720001	     -4.99999985	      0.00000000	      0.00000000	     -8.48605241	     -9.23923904	      6.57389584	     89.97754730	    -29.41937706	     25.40067759	     55.86952026	     83.93387641	      0.00000000	      0.00000000	      7.00319486	    -32.52309234	     11.95950167	    111.17160778	     89.38898300	      0.00000000	      0.00000000
     14.90000000	      0.33440185	      2.08481159	      5.22563257	     -0.81551623	      0.58127468	      0.31151397	     45.00000012	     -9.99999999	      0.00000000	     60.00014062	      1.04720001	     -4.99999985	      0.00000000	      0.00000000	     45.00000012	     -9.99999999	      0.00000000	     60.00014062	      1.04720001	     -4.99999985	      0.00000000	      0.00000000	     -8.45531216	     -9.24191324	      6.64969554	     89.97756661	    -29.43688346	     25.40222940	     55.65920568	     83.94049198	      0.00000000	      0.00000000	      7.08864029	    -32.51013442	     12.10402269	    111.16897757	     89.38595840	      0.00000000	      0.00000000
     14.90500000	      0.28944706	      2.07434545	      5.24458858	     -0.81552882	      0.58120972	      0.31142299	     45.00000012	     -9.99999999	      0.00000000	     60.00014062	      1.04720001	     -4.99999985	      0.00000000	      0.00000000	     45.00000012	     -9.99999999	      0.00000000	     60.00014062	      1.04720001	     -4.99999985	      0.00000000	      0.00000000	     -8.44573763	     -9.24522916	      6.71438260	     89.97753770	    -29.44861024	     25.40983929	     55.48812616	     83.94864037	      0.00000000	      0.00000000	      7.16917296	    -32.49112525	     12.19965210	    111.17373450	     89.36834511	      0.00000000	      0.00000000
     14.91000000	      0.24179089	      2.06108368	      5.24403935	     -0.81547369	      0.58107560	      0.31138157	     45.00000012	     -9.99999999	      0.00000000	     60.00014062	      1.04720001	     -4.99999985	      0.00000000	      0.00000000	     45.00000012	     -9.99999999	      0.00000000	     60.00014062	      1.04720001	     -4.99999985	      0.00000000	      0.00000000	     -8.40698852	     -9.24636304	      6.80467244	     89.97756872	    -29.43172060	     25.42061831	     55.22640083	     83.96997856	      0.00000000	      0.00000000	      7.28346155	    -32.50808182	     12.38445811	    111.13192466	     89.41731878	      0.00000000	      0.00000000
     14.91500000	      0.19565984	      2.04956642	      5.25642072	     -0.81549608	      0.58096984	      0.31123205	     45.00000012	     -9.99999999	      0.00000000	     60.00014062	      1.04720001	     -4.99999985	      0.00000000	      0.00000000	     45.00000012	     -9.99999999	      0.00000000	     60.00014062	      1.04720001	     -4.99999985	      0.00000000	      0.00000000	     -8.39094210	     -9.24206261	      6.88040127	     89.97756686	    -29.44986809	     25.39775949	     55.03735252	     83.98020220	      0.00000000	      0.00000000	      7.37980437	    -32.48992455	     12.50675219	    111.13749591	     89.40651256	      0.00000000	      0.00000000
     14.92000000	      0.16319551	      2.03750091	      5.25782795	     -0.81552379	      0.58083161	      0.31111364	     45.00000012	     -9.99999999	      0.00000000	     60.00014062	      1.04720001	     -4.99999985	      0.00000000	      0.00000000	     45.00000012	     -9.99999999	      0.00000000	     60.00014062	      1.04720001	     -4.99999985	      0.00000000	      0.00000000	     -8.38202540	     -9.23733915	      6.95790496	     89.97756702	    -29.46082036	     25.44598938	     54.83346302	     84.00675918	      0.00000000	      0.00000000	      7.47962457	    -32.48035182	     12.63617958	    111.14429723	     89.40291845	      0.00000000	      0.00000000
     14.92500000	      0.13812249	      2.03412487	      5.26955379	     -0.81553853	      0.58070022	      0.31096728	     45.00000012	     -9.99999999	      0.00000000	     60.00014062	      1.04720001	     -4.99999985	      0.00000000	      0.00000000	     45.00000012	     -9.99999999	      0.00000000	     60.00014062	      1.04720001	     -4.99999985	      0.00000000	      0.00000000	     -8.38620584	     -9.23869758	      7.02052970	     89.97755486	    -29.48635287	     25.49218769	     54.65542792	     84.02795725	      0.00000000	      0.00000000	      7.56539907	    -32.47078180	     12.74209400	    111.16403338	     89.40565715	      0.00000000	      0.00000000
     14.93000000	      0.11028311	      2.03277553	      5.27889946	     -0.81565491	      0.58057945	      0.31078673	     45.00000012	     -9.99999999	      0.00000000	     60.00014062	      1.04720001	     -4.99999985	      0.00000000	      0.00000000	     45.00000012	     -9.99999999	      0.00000000	     60.00014062	      1.04720001	     -4.99999985	      0.00000000	      0.00000000	     -8.40831343	     -9.23396019	      7.06189225	     89.97752190	    -29.50246465	     25.51372121	     54.54070892	     84.03493599	      0.00000000	      0.00000000	      7.64089111	    -32.44501107	     12.80362007	    111.20935028	     89.35342277	      0.00000000	      0.00000000
     14.93500000	      0.11693710	      2.01970015	      5.26792934	     -0.81558866	      0.58049335	      0.31070294	     45.00000012	     -9.99999999	      0.00000000	     60.00014062	      1.04720001	     -4.99999985	      0.00000000	      0.00000000	     45.00000012	     -9.99999999	      0.00000000	     60.00014062	      1.04720001	     -4.99999985	      0.00000000	      0.00000000	     -8.42486399	     -9.22534128	      7.14295395	     89.97754788	    -29.51632291	     25.64805762	     54.26594168	     84.06609194	      0.00000000	      0.00000000	      7.74167736	    -32.46496515	     12.97157806	    111.17426503	     89.40362109	      0.00000000	      0.00000000
